<mxfile host="Electron" agent="Mozilla/5.0 (Windows NT 10.0; Win64; x64) AppleWebKit/537.36 (KHTML, like Gecko) draw.io/27.0.9 Chrome/134.0.6998.205 Electron/35.4.0 Safari/537.36" version="27.0.9">
  <diagram name="第 1 页" id="DIXkuJStKjbXfeClc3SF">
    <mxGraphModel dx="1188" dy="708" grid="1" gridSize="10" guides="1" tooltips="1" connect="1" arrows="1" fold="1" page="1" pageScale="1" pageWidth="827" pageHeight="1169" background="none" math="0" shadow="0">
      <root>
        <mxCell id="0" />
        <mxCell id="1" parent="0" />
        <mxCell id="yD_WaYWGOieOiRsi6kVZ-55" value="" style="whiteSpace=wrap;html=1;dashed=1;dashPattern=8 8;fillColor=none;" vertex="1" parent="1">
          <mxGeometry x="220" y="120" width="770" height="480" as="geometry" />
        </mxCell>
        <mxCell id="yD_WaYWGOieOiRsi6kVZ-11" value="" style="edgeStyle=none;orthogonalLoop=1;jettySize=auto;html=1;rounded=0;dashed=1;endArrow=none;startFill=0;curved=0;jumpSize=1;endSize=0;startSize=0;targetPerimeterSpacing=0;strokeWidth=1;fontColor=light-dark(#000000,#EDEDED);" edge="1" parent="1">
          <mxGeometry width="80" relative="1" as="geometry">
            <mxPoint x="74.5" y="118.24797843665769" as="sourcePoint" />
            <mxPoint x="75" y="600" as="targetPoint" />
            <Array as="points" />
          </mxGeometry>
        </mxCell>
        <mxCell id="yD_WaYWGOieOiRsi6kVZ-15" value="Provider" style="shape=umlActor;verticalLabelPosition=bottom;verticalAlign=top;html=1;fillColor=none;" vertex="1" parent="1">
          <mxGeometry x="590" y="20" width="30" height="60" as="geometry" />
        </mxCell>
        <mxCell id="yD_WaYWGOieOiRsi6kVZ-19" value="ConsumerIdentifierResolver" style="shape=umlLifeline;perimeter=lifelinePerimeter;whiteSpace=wrap;html=1;container=1;dropTarget=0;collapsible=0;recursiveResize=0;outlineConnect=0;portConstraint=eastwest;newEdgeStyle={&quot;curved&quot;:0,&quot;rounded&quot;:0};fillColor=none;" vertex="1" parent="1">
          <mxGeometry x="240" y="140" width="170" height="270" as="geometry" />
        </mxCell>
        <mxCell id="yD_WaYWGOieOiRsi6kVZ-23" value="" style="html=1;points=[[0,0,0,0,5],[0,1,0,0,-5],[1,0,0,0,5],[1,1,0,0,-5]];perimeter=orthogonalPerimeter;outlineConnect=0;targetShapes=umlLifeline;portConstraint=eastwest;newEdgeStyle={&quot;curved&quot;:0,&quot;rounded&quot;:0};" vertex="1" parent="yD_WaYWGOieOiRsi6kVZ-19">
          <mxGeometry x="80" y="70" width="10" height="130" as="geometry" />
        </mxCell>
        <mxCell id="yD_WaYWGOieOiRsi6kVZ-20" value="" style="html=1;points=[[0,0,0,0,5],[0,1,0,0,-5],[1,0,0,0,5],[1,1,0,0,-5]];perimeter=orthogonalPerimeter;outlineConnect=0;targetShapes=umlLifeline;portConstraint=eastwest;newEdgeStyle={&quot;curved&quot;:0,&quot;rounded&quot;:0};" vertex="1" parent="1">
          <mxGeometry x="70" y="210" width="10" height="370" as="geometry" />
        </mxCell>
        <mxCell id="yD_WaYWGOieOiRsi6kVZ-25" value="&lt;div style=&quot;&quot;&gt;&lt;br&gt;&lt;/div&gt;" style="html=1;verticalAlign=bottom;endArrow=block;curved=0;rounded=0;fontSize=10;labelBackgroundColor=none;fontColor=light-dark(#000000,#EDEDED);align=center;" edge="1" parent="1" target="yD_WaYWGOieOiRsi6kVZ-23">
          <mxGeometry width="80" relative="1" as="geometry">
            <mxPoint x="80" y="220" as="sourcePoint" />
            <mxPoint x="310" y="220" as="targetPoint" />
          </mxGeometry>
        </mxCell>
        <mxCell id="yD_WaYWGOieOiRsi6kVZ-29" value="&lt;font style=&quot;&quot;&gt;&lt;i&gt;with http request header&lt;/i&gt;&lt;/font&gt;&lt;div&gt;&amp;nbsp; &amp;nbsp; -&amp;nbsp;Cache-Customer&lt;/div&gt;&lt;div&gt;&amp;nbsp; &amp;nbsp; -&amp;nbsp;Cache-Store&lt;/div&gt;&lt;div&gt;&lt;i&gt;with http requset body&lt;/i&gt;&lt;/div&gt;&lt;div&gt;&amp;nbsp; &amp;nbsp; &lt;font style=&quot;&quot;&gt;-&amp;nbsp;ConsumerOp&amp;lt;ConsumerCacheData&amp;gt;&lt;/font&gt;&lt;/div&gt;" style="text;align=left;verticalAlign=middle;spacingLeft=4;spacingRight=4;overflow=hidden;rotatable=0;points=[[0,0.5],[1,0.5]];portConstraint=eastwest;whiteSpace=wrap;html=1;fontSize=10;" vertex="1" parent="1">
          <mxGeometry x="110" y="220" width="200" height="70" as="geometry" />
        </mxCell>
        <mxCell id="yD_WaYWGOieOiRsi6kVZ-35" value="" style="html=1;align=left;spacingLeft=2;endArrow=block;rounded=0;edgeStyle=orthogonalEdgeStyle;curved=0;rounded=0;fontColor=light-dark(#000000,#EDEDED);" edge="1" parent="1" target="yD_WaYWGOieOiRsi6kVZ-23">
          <mxGeometry x="0.003" relative="1" as="geometry">
            <mxPoint x="330" y="240" as="sourcePoint" />
            <Array as="points">
              <mxPoint x="360" y="240" />
              <mxPoint x="360" y="300" />
            </Array>
            <mxPoint x="330" y="295" as="targetPoint" />
            <mxPoint as="offset" />
          </mxGeometry>
        </mxCell>
        <mxCell id="yD_WaYWGOieOiRsi6kVZ-36" value="CacheOperationConverter" style="shape=umlLifeline;perimeter=lifelinePerimeter;whiteSpace=wrap;html=1;container=1;dropTarget=0;collapsible=0;recursiveResize=0;outlineConnect=0;portConstraint=eastwest;newEdgeStyle={&quot;curved&quot;:0,&quot;rounded&quot;:0};fillColor=none;" vertex="1" parent="1">
          <mxGeometry x="520" y="140" width="170" height="460" as="geometry" />
        </mxCell>
        <mxCell id="yD_WaYWGOieOiRsi6kVZ-37" value="" style="html=1;points=[[0,0,0,0,5],[0,1,0,0,-5],[1,0,0,0,5],[1,1,0,0,-5]];perimeter=orthogonalPerimeter;outlineConnect=0;targetShapes=umlLifeline;portConstraint=eastwest;newEdgeStyle={&quot;curved&quot;:0,&quot;rounded&quot;:0};fillColor=light-dark(#ffffff, #ededed);" vertex="1" parent="yD_WaYWGOieOiRsi6kVZ-36">
          <mxGeometry x="80" y="170" width="10" height="270" as="geometry" />
        </mxCell>
        <mxCell id="yD_WaYWGOieOiRsi6kVZ-38" value="" style="html=1;verticalAlign=bottom;endArrow=block;curved=0;rounded=0;fontColor=light-dark(#000000,#EDEDED);" edge="1" parent="1">
          <mxGeometry width="80" relative="1" as="geometry">
            <mxPoint x="330" y="320" as="sourcePoint" />
            <mxPoint x="600" y="320" as="targetPoint" />
          </mxGeometry>
        </mxCell>
        <mxCell id="yD_WaYWGOieOiRsi6kVZ-42" value="resolveArgument()" style="text;align=center;verticalAlign=middle;spacingLeft=4;spacingRight=4;overflow=hidden;rotatable=0;points=[[0,0.5],[1,0.5]];portConstraint=eastwest;whiteSpace=wrap;html=1;fontSize=10;" vertex="1" parent="1">
          <mxGeometry x="360" y="240" width="100" height="60" as="geometry" />
        </mxCell>
        <mxCell id="yD_WaYWGOieOiRsi6kVZ-43" value="" style="html=1;align=left;spacingLeft=2;endArrow=block;rounded=0;edgeStyle=orthogonalEdgeStyle;curved=0;rounded=0;fontColor=light-dark(#000000,#EDEDED);" edge="1" parent="1">
          <mxGeometry x="0.003" relative="1" as="geometry">
            <mxPoint x="610" y="340" as="sourcePoint" />
            <Array as="points">
              <mxPoint x="640" y="340" />
              <mxPoint x="640" y="400" />
            </Array>
            <mxPoint x="610" y="400" as="targetPoint" />
            <mxPoint as="offset" />
          </mxGeometry>
        </mxCell>
        <mxCell id="yD_WaYWGOieOiRsi6kVZ-44" value="readInternal()" style="text;align=center;verticalAlign=middle;spacingLeft=4;spacingRight=4;overflow=hidden;rotatable=0;points=[[0,0.5],[1,0.5]];portConstraint=eastwest;whiteSpace=wrap;html=1;fontSize=10;" vertex="1" parent="1">
          <mxGeometry x="640" y="340" width="70" height="60" as="geometry" />
        </mxCell>
        <mxCell id="yD_WaYWGOieOiRsi6kVZ-45" value="&lt;font style=&quot;&quot;&gt;&lt;i&gt;with http request header&lt;/i&gt;&lt;/font&gt;&lt;div&gt;&amp;nbsp; &amp;nbsp; -&amp;nbsp;Cache-Customer&lt;/div&gt;&lt;div&gt;&amp;nbsp; &amp;nbsp; -&amp;nbsp;Cache-Store&lt;/div&gt;&lt;div&gt;&lt;i&gt;with http requset body&lt;/i&gt;&lt;/div&gt;&lt;div&gt;&amp;nbsp; &amp;nbsp; &lt;font style=&quot;&quot;&gt;-&amp;nbsp;ConsumerOp&amp;lt;ConsumerCacheData&amp;gt;&lt;/font&gt;&lt;/div&gt;" style="text;align=left;verticalAlign=middle;spacingLeft=4;spacingRight=4;overflow=hidden;rotatable=0;points=[[0,0.5],[1,0.5]];portConstraint=eastwest;whiteSpace=wrap;html=1;fontSize=10;" vertex="1" parent="1">
          <mxGeometry x="370" y="320" width="200" height="70" as="geometry" />
        </mxCell>
        <mxCell id="yD_WaYWGOieOiRsi6kVZ-46" value="CacheOperationController" style="shape=umlLifeline;perimeter=lifelinePerimeter;whiteSpace=wrap;html=1;container=1;dropTarget=0;collapsible=0;recursiveResize=0;outlineConnect=0;portConstraint=eastwest;newEdgeStyle={&quot;curved&quot;:0,&quot;rounded&quot;:0};fillColor=none;" vertex="1" parent="1">
          <mxGeometry x="800" y="140" width="170" height="460" as="geometry" />
        </mxCell>
        <mxCell id="yD_WaYWGOieOiRsi6kVZ-47" value="" style="html=1;points=[[0,0,0,0,5],[0,1,0,0,-5],[1,0,0,0,5],[1,1,0,0,-5]];perimeter=orthogonalPerimeter;outlineConnect=0;targetShapes=umlLifeline;portConstraint=eastwest;newEdgeStyle={&quot;curved&quot;:0,&quot;rounded&quot;:0};" vertex="1" parent="yD_WaYWGOieOiRsi6kVZ-46">
          <mxGeometry x="80" y="270" width="10" height="150" as="geometry" />
        </mxCell>
        <mxCell id="yD_WaYWGOieOiRsi6kVZ-49" value="" style="html=1;verticalAlign=bottom;endArrow=block;curved=0;rounded=0;fontColor=light-dark(#000000,#EDEDED);" edge="1" parent="1">
          <mxGeometry width="80" relative="1" as="geometry">
            <mxPoint x="610" y="419.93" as="sourcePoint" />
            <mxPoint x="880" y="419.93" as="targetPoint" />
          </mxGeometry>
        </mxCell>
        <mxCell id="yD_WaYWGOieOiRsi6kVZ-50" value="&lt;font style=&quot;&quot;&gt;&lt;i&gt;with http request header&lt;/i&gt;&lt;/font&gt;&lt;div&gt;&amp;nbsp; &amp;nbsp; -&amp;nbsp;Cache-Customer&lt;/div&gt;&lt;div&gt;&amp;nbsp; &amp;nbsp; -&amp;nbsp;Cache-Store&lt;/div&gt;&lt;div&gt;&lt;i&gt;with http requset body&lt;/i&gt;&lt;/div&gt;&lt;div&gt;&amp;nbsp; &amp;nbsp; &lt;font style=&quot;&quot;&gt;-&amp;nbsp;ProviderOp&amp;lt;ProviderCacheStore&amp;gt;&lt;/font&gt;&lt;/div&gt;" style="text;align=left;verticalAlign=middle;spacingLeft=4;spacingRight=4;overflow=hidden;rotatable=0;points=[[0,0.5],[1,0.5]];portConstraint=eastwest;whiteSpace=wrap;html=1;fontSize=10;" vertex="1" parent="1">
          <mxGeometry x="650" y="420" width="200" height="70" as="geometry" />
        </mxCell>
        <mxCell id="yD_WaYWGOieOiRsi6kVZ-51" value="" style="html=1;verticalAlign=bottom;endArrow=none;curved=0;rounded=0;startArrow=classic;startFill=0;fontColor=light-dark(#000000,#EDEDED);" edge="1" parent="1">
          <mxGeometry width="80" relative="1" as="geometry">
            <mxPoint x="610" y="550" as="sourcePoint" />
            <mxPoint x="880" y="550" as="targetPoint" />
          </mxGeometry>
        </mxCell>
        <mxCell id="yD_WaYWGOieOiRsi6kVZ-53" value="" style="html=1;verticalAlign=bottom;endArrow=none;curved=0;rounded=0;startArrow=classic;startFill=0;fontColor=light-dark(#000000,#EDEDED);" edge="1" parent="1">
          <mxGeometry width="80" relative="1" as="geometry">
            <mxPoint x="80" y="570" as="sourcePoint" />
            <mxPoint x="600" y="570" as="targetPoint" />
          </mxGeometry>
        </mxCell>
        <mxCell id="yD_WaYWGOieOiRsi6kVZ-9" value="Consumer" style="shape=umlActor;verticalLabelPosition=bottom;verticalAlign=top;html=1;fillColor=none;" vertex="1" parent="1">
          <mxGeometry x="60" y="20" width="30" height="65.49865229110512" as="geometry" />
        </mxCell>
        <mxCell id="yD_WaYWGOieOiRsi6kVZ-58" value="&lt;div style=&quot;&quot;&gt;&lt;span style=&quot;text-wrap-mode: nowrap;&quot;&gt;POST /operation&amp;nbsp;&lt;/span&gt;&lt;/div&gt;&lt;div style=&quot;&quot;&gt;&lt;span style=&quot;text-wrap-mode: nowrap;&quot;&gt;PUT /operation&amp;nbsp;&lt;/span&gt;&lt;/div&gt;&lt;div style=&quot;&quot;&gt;&lt;span style=&quot;text-wrap-mode: nowrap;&quot;&gt;POST /operation/batch&lt;/span&gt;&lt;/div&gt;" style="text;align=left;verticalAlign=middle;spacingLeft=4;spacingRight=4;overflow=hidden;rotatable=0;points=[[0,0.5],[1,0.5]];portConstraint=eastwest;whiteSpace=wrap;html=1;fontSize=10;" vertex="1" parent="1">
          <mxGeometry x="110" y="180" width="120" height="40" as="geometry" />
        </mxCell>
      </root>
    </mxGraphModel>
  </diagram>
</mxfile>
